<svg xmlns="http://www.w3.org/2000/svg" width="26" height="25" viewBox="0 0 26 25"><path d="M11.3 4.08A1.3 1.3 0 0 0 10 5.38c0 .71.59 1.29 1.31 1.29 1.61 0 3.05.89 3.75 2.31a1.32 1.32 0 0 0 1.76.6c.65-.31.93-1.09.6-1.73a6.76 6.76 0 0 0-6.1-3.77zm14.16 17.8l-4.39-4.32c1.3-1.8 2.07-3.99 2.07-6.36C23.14 5.13 18.12.19 11.96.19A11.11 11.11 0 0 0 .78 11.2c0 6.08 5.01 11.02 11.18 11.02 2.57 0 4.94-.87 6.83-2.32l4.34 4.27a1.64 1.64 0 0 0 2.33 0 1.6 1.6 0 0 0 0-2.29zM3.4 11.2a8.5 8.5 0 0 1 8.55-8.42 8.5 8.5 0 0 1 8.55 8.42 8.33 8.33 0 0 1-3.03 6.42A8.57 8.57 0 0 1 3.41 11.2z"/><path fill="#fff" d="M11.3 4.08A1.3 1.3 0 0 0 10 5.38c0 .71.59 1.29 1.31 1.29 1.61 0 3.05.89 3.75 2.31a1.32 1.32 0 0 0 1.76.6c.65-.31.93-1.09.6-1.73a6.76 6.76 0 0 0-6.1-3.77zm14.16 17.8l-4.39-4.32c1.3-1.8 2.07-3.99 2.07-6.36C23.14 5.13 18.12.19 11.96.19A11.11 11.11 0 0 0 .78 11.2c0 6.08 5.01 11.02 11.18 11.02 2.57 0 4.94-.87 6.83-2.32l4.34 4.27a1.64 1.64 0 0 0 2.33 0 1.6 1.6 0 0 0 0-2.29zM3.4 11.2a8.5 8.5 0 0 1 8.55-8.42 8.5 8.5 0 0 1 8.55 8.42 8.33 8.33 0 0 1-3.03 6.42A8.57 8.57 0 0 1 3.41 11.2z"/></svg>